<svg id="Layer_1" data-name="Layer 1" xmlns="http://www.w3.org/2000/svg" viewBox="0 0 256.67 156.93"><defs><style>.cls-1,.cls-10,.cls-4,.cls-9{fill:none;}.cls-2{fill:#70c498;}.cls-3,.cls-6{fill:#112328;}.cls-4{stroke:#231f20;stroke-width:0.2px;}.cls-10,.cls-4,.cls-9{stroke-miterlimit:10;}.cls-5{fill:#1e3b47;opacity:0.5;}.cls-6{opacity:0.8;}.cls-7{fill:#71c599;}.cls-8{fill:#18323a;opacity:0.7;}.cls-10,.cls-9{stroke:#4abb84;}.cls-9{stroke-width:0.82px;}.cls-10{stroke-width:0.48px;}.cls-11{font-size:13.1px;font-family:ArialMT, Arial;}.cls-11,.cls-13{fill:#fff;}.cls-12{font-family:Arial-Black, Arial Black;}.cls-13{font-size:5.47px;font-family:PingFangSC-Light-GBpc-EUC-H, PingFang SC;}</style></defs><title>Untitled-1</title><line class="cls-1" x1="233.16" y1="112.64" x2="233.16" y2="123.62"/><rect class="cls-2" x="0.1" y="0.1" width="85.49" height="156.73"/><rect class="cls-2" x="171.08" y="0.1" width="85.49" height="156.73"/><polygon class="cls-3" points="256.57 156.83 256.57 87.86 104.57 0.1 54.24 0.1 54.41 40.12 0.1 8.76 0.1 67.8 154.31 156.83 240.12 156.83 240.12 147.33 256.57 156.83"/><rect class="cls-4" x="0.1" y="0.1" width="256.47" height="156.73"/><rect class="cls-5" x="16.55" y="0.1" width="69.04" height="156.73"/><rect class="cls-6" x="0.1" y="0.1" width="256.47" height="156.73"/><polygon class="cls-7" points="0.1 156.83 16.47 156.83 16.47 77.25 0.1 67.8 0.1 156.83"/><polygon class="cls-7" points="256.49 0.1 240.12 0.1 240.12 79.68 256.49 89.13 256.49 0.1"/><rect class="cls-8" x="171.08" y="0.1" width="69.04" height="156.73"/><rect class="cls-9" x="237.92" y="226" width="19.63" height="19.63" transform="translate(-213.59 74.97) rotate(-45)"/><line class="cls-10" x1="128.08" y1="66.54" x2="132.2" y2="70.66"/><line class="cls-10" x1="124.47" y1="70.49" x2="128.26" y2="66.69"/><text class="cls-11" transform="translate(79.22 96.95) scale(0.99 1)">TIAMO <tspan class="cls-12" x="45.13" y="0">STUDIO</tspan></text><text class="cls-13" transform="translate(78.69 104.81)"><tspan xml:space="preserve"> F o r   T h e   B e s t   A n i m a t i o n</tspan></text></svg>