<svg id="Layer_1" data-name="Layer 1" xmlns="http://www.w3.org/2000/svg" xmlns:xlink="http://www.w3.org/1999/xlink" viewBox="0 0 205.44 336.01"><defs><style>.cls-1{font-size:22.37px;font-family:HannotateSC-W5-GBpc-EUC-H, Hannotate SC;}.cls-1,.cls-12,.cls-17,.cls-18,.cls-19,.cls-2,.cls-5,.cls-9{fill:#231f20;}.cls-2{font-size:119.17px;font-family:Arial-Black, Arial Black;}.cls-3{fill:none;stroke:#231f20;stroke-width:0.26px;}.cls-11,.cls-3{stroke-miterlimit:10;}.cls-4{clip-path:url(#clip-path);}.cls-5{opacity:0.8;}.cls-6{clip-path:url(#clip-path-2);}.cls-7{clip-path:url(#clip-path-3);}.cls-8{fill:#fff;}.cls-9{font-size:23.69px;font-family:STHeitiTC-Medium, Heiti TC;}.cls-10{font-family:STHeitiTC-Light, Heiti TC;}.cls-11{fill:#7acdd1;stroke:#7acdd1;stroke-width:0.79px;}.cls-12{font-size:6.58px;}.cls-12,.cls-18,.cls-19{font-family:LaoSangamMN, Lao Sangam MN;}.cls-13{letter-spacing:-0.03em;}.cls-14{letter-spacing:0em;}.cls-15{letter-spacing:-0.01em;}.cls-16{letter-spacing:-0.01em;}.cls-17{font-size:9.21px;font-family:Copperplate-Light, Copperplate;}.cls-18{font-size:7.54px;}.cls-19{font-size:7.51px;}</style><clipPath id="clip-path" transform="translate(-51.81 -30.83)"><text class="cls-1" transform="translate(166.88 179.3)">Amo</text></clipPath><clipPath id="clip-path-2" transform="translate(-51.81 -30.83)"><text class="cls-2" transform="translate(97.39 214.73)">T</text></clipPath><clipPath id="clip-path-3" transform="translate(-51.81 -30.83)"><text class="cls-1" transform="translate(154.14 198.02)">Studio</text></clipPath></defs><title>Untitled-3</title><rect class="cls-3" x="-13.34" y="96.24" width="335.74" height="205.18" transform="translate(-96.11 322.54) rotate(-90)"/><g class="cls-4"><rect class="cls-5" x="177.04" y="152.81" width="20.59" height="40.92" transform="translate(308.79 -44.89) rotate(90)"/></g><g class="cls-6"><rect class="cls-5" x="95.4" y="131.31" width="92.42" height="84.48" transform="translate(263.34 1.12) rotate(90)"/></g><g class="cls-7"><rect class="cls-5" x="175.27" y="159.67" width="20.59" height="61.38" transform="translate(324.11 -26.02) rotate(90)"/></g><rect class="cls-8" x="108.75" y="97.51" width="36.66" height="173.54" transform="translate(-144.9 113.01) rotate(-45)"/><rect class="cls-8" x="178.76" y="63.18" width="10.12" height="165.11" transform="translate(-101.02 141.84) rotate(-45)"/><text class="cls-9" transform="translate(36.04 221.73)">tiamo<tspan class="cls-10" x="66.68" y="0">studio</tspan></text><line class="cls-11" x1="36.41" y1="225.36" x2="170.45" y2="225.99"/><text class="cls-12" transform="translate(37.79 237.88)">9 Excalibur<tspan class="cls-13" x="31.23" y="0"> </tspan><tspan class="cls-14" x="33" y="0">A</tspan><tspan class="cls-15" x="37.02" y="0">v</tspan><tspan x="39.91" y="0">enue, Doncaster East,</tspan><tspan class="cls-16" x="102.64" y="0"> </tspan><tspan x="104.55" y="0">VIC 3109</tspan></text><text class="cls-17" transform="translate(65.66 250.58)">tel</text><text class="cls-18" transform="translate(84.88 250.82) scale(1.05 1)">0512 6721 5321</text><text class="cls-17" transform="translate(65.67 258.13)">fax</text><text class="cls-19" transform="translate(84.88 259.03) scale(1.05 1)">0512 6721 5320</text></svg>